<svg width="80" height="24" viewBox="0 0 80 24" fill="none" xmlns="http://www.w3.org/2000/svg">
<path d="M14.1306 23.4786L8.59979 14.4513H4.25161V23.4786H0.772949V0.0499992H10.5478C14.9655 0.0499992 17.9918 2.9303 17.9918 7.25074C17.9918 11.4657 15.1742 13.7138 12.2173 14.1002L18.1659 23.4786H14.1306ZM10.0956 3.14112H4.25161V11.3604H10.0956C12.6002 11.3604 14.4089 9.70948 14.4089 7.25074C14.4089 4.792 12.6002 3.14112 10.0956 3.14112Z" fill="white"/>
<path d="M19.1374 14.9782C19.1374 10.0957 22.4073 6.0916 27.625 6.0916C32.8777 6.0916 36.1128 10.0958 36.1128 14.9782C36.1128 19.8958 32.8777 23.9 27.625 23.9C22.4073 23.9 19.1374 19.8958 19.1374 14.9782ZM32.8429 14.9782C32.8429 11.7818 30.9993 8.9016 27.625 8.9016C24.2856 8.9016 22.4073 11.7818 22.4073 14.9782C22.4073 18.2098 24.2856 21.09 27.625 21.09C30.9993 21.09 32.8429 18.2098 32.8429 14.9782Z" fill="white"/>
<path d="M49.4679 23.4786V21.6168C48.146 23.0922 46.2328 23.9 43.9717 23.9C41.1889 23.9 38.1277 22.0032 38.1277 18.28C38.1277 14.4162 41.154 12.7302 43.9717 12.7302C46.2328 12.7302 48.1808 13.4677 49.4679 14.9781V12.1681C49.4679 10.0606 47.7635 8.79608 45.3631 8.79608C43.45 8.79608 41.8151 9.5337 40.3193 11.0441L38.9626 8.8663C40.841 7.00466 43.1368 6.0914 45.8502 6.0914C49.5027 6.0914 52.5987 7.70718 52.5987 12.0276V23.4784H49.4681L49.4679 23.4786ZM49.4679 16.875C48.5286 15.6104 46.8938 14.9431 45.1544 14.9431C42.8934 14.9431 41.2932 16.313 41.2932 18.3152C41.2932 20.3172 42.8932 21.6872 45.1544 21.6872C46.8938 21.6872 48.5286 21.0198 49.4679 19.7552V16.875Z" fill="white"/>
<path d="M56.666 18.9474C57.814 20.2118 60.0403 21.371 62.3015 21.371C64.6668 21.371 65.9192 20.3876 65.9192 18.9474C65.9192 17.2614 64.0058 16.6994 61.8493 16.2076C58.9967 15.5402 55.6573 14.7674 55.6573 11.1145C55.6573 8.40982 57.9533 6.0916 62.0578 6.0916C64.9451 6.0916 67.0323 7.1453 68.4584 8.51524L67.0672 10.7281C66.0931 9.5339 64.2148 8.65568 62.0927 8.65568C59.9708 8.65568 58.6489 9.49872 58.6489 10.8686C58.6489 12.3439 60.4579 12.8356 62.5449 13.3274C65.467 13.9947 68.9454 14.8026 68.9454 18.7016C68.9454 21.6168 66.5801 23.9 62.1622 23.9C59.3447 23.9 56.8748 23.022 55.1704 21.2656L56.666 18.9474Z" fill="white"/>
<path d="M72.5604 19.7202V9.28806H69.7775V6.5131H72.5604V1.87666H75.691V6.51318H79.1V9.28814H75.691V19.0178C75.691 20.212 76.2476 21.0902 77.3259 21.0902C78.0564 21.0902 78.7173 20.774 79.0305 20.4228L79.8305 22.8114C79.1697 23.4436 78.1956 23.9002 76.5606 23.9002C73.9169 23.9002 72.5602 22.39 72.5602 19.7204L72.5604 19.7202Z" fill="white"/>
</svg>
